<svg width="40" height="40" viewBox="0 0 40 40" fill="none" xmlns="http://www.w3.org/2000/svg">
<g id="icon" clip-path="url(#clip0_1160_1212)">
<path id="Vector" d="M20.0001 0C16.0445 0 12.1777 1.17298 8.88873 3.37061C5.59974 5.56824 3.03629 8.69181 1.52254 12.3463C0.00878775 16.0009 -0.387279 20.0222 0.384425 23.9018C1.15613 27.7814 3.06095 31.3451 5.858 34.1421C8.65505 36.9392 12.2187 38.844 16.0983 39.6157C19.9779 40.3874 23.9993 39.9913 27.6538 38.4776C31.3083 36.9638 34.4319 34.4004 36.6295 31.1114C38.8271 27.8224 40.0001 23.9556 40.0001 20C40.0001 14.6957 37.893 9.60859 34.1423 5.85786C30.3915 2.10714 25.3045 0 20.0001 0V0ZM22.0001 38C19.2312 38 16.5244 37.1789 14.2221 35.6406C11.9199 34.1022 10.1254 31.9157 9.06582 29.3576C8.00619 26.7994 7.72894 23.9845 8.26914 21.2687C8.80933 18.553 10.1427 16.0584 12.1006 14.1005C14.0586 12.1426 16.5531 10.8092 19.2689 10.269C21.9846 9.72881 24.7995 10.0061 27.3577 11.0657C29.9159 12.1253 32.1024 13.9197 33.6407 16.222C35.179 18.5243 36.0001 21.2311 36.0001 24C36.0001 27.713 34.5251 31.274 31.8996 33.8995C29.2741 36.525 25.7132 38 22.0001 38V38Z" fill="#FF5151"/>
</g>
<defs>
<clipPath id="clip0_1160_1212">
<rect width="40" height="40" fill="white"/>
</clipPath>
</defs>
</svg>
