<svg width="50" height="50" viewBox="0 0 50 50" fill="none" xmlns="http://www.w3.org/2000/svg">
<path d="M25.0001 8.3335C26.1507 8.3335 27.0834 9.26624 27.0834 10.4168V22.9168H39.5834C40.734 22.9168 41.6668 23.8496 41.6668 25.0002C41.6668 26.1508 40.734 27.0835 39.5834 27.0835H27.0834V39.5835C27.0834 40.7341 26.1507 41.6668 25.0001 41.6668C23.8495 41.6668 22.9168 40.7341 22.9168 39.5835V27.0835H10.4168C9.26617 27.0835 8.33344 26.1508 8.33344 25.0002C8.33344 23.8496 9.26617 22.9168 10.4168 22.9168H22.9168V10.4168C22.9168 9.26624 23.8495 8.3335 25.0001 8.3335Z" fill="#E7E7E7"/>
</svg>
