<svg width="42" height="42" viewBox="0 0 42 42" fill="none" xmlns="http://www.w3.org/2000/svg">
<g id="add">
<path id="Icon" d="M21.0001 7C21.9666 7 22.7501 7.7835 22.7501 8.75V19.25H33.2501C34.2166 19.25 35.0001 20.0335 35.0001 21C35.0001 21.9665 34.2166 22.75 33.2501 22.75H22.7501V33.25C22.7501 34.2165 21.9666 35 21.0001 35C20.0336 35 19.2501 34.2165 19.2501 33.25V22.75H8.75012C7.78362 22.75 7.00012 21.9665 7.00012 21C7.00012 20.0335 7.78362 19.25 8.75012 19.25H19.2501V8.75C19.2501 7.7835 20.0336 7 21.0001 7Z" fill="#E7E7E7"/>
</g>
</svg>
