<svg width="56" height="56" viewBox="0 0 56 56" fill="none" xmlns="http://www.w3.org/2000/svg">
<g id="add">
<path id="Icon" d="M33.9607 15.3152C34.8342 15.7289 35.2069 16.7724 34.7932 17.6458L30.2987 27.1353L39.7881 31.6298C40.6616 32.0435 41.0343 33.087 40.6206 33.9605C40.2069 34.8339 39.1634 35.2066 38.2899 34.7929L28.8005 30.2984L24.306 39.7879C23.8923 40.6613 22.8488 41.0341 21.9753 40.6204C21.1019 40.2066 20.7291 39.1632 21.1428 38.2897L25.6373 28.8003L16.1479 24.3058C15.2744 23.892 14.9017 22.8486 15.3154 21.9751C15.7291 21.1016 16.7726 20.7289 17.6461 21.1426L27.1355 25.6371L31.63 16.1477C32.0437 15.2742 33.0872 14.9015 33.9607 15.3152Z" fill="#E7E7E7"/>
</g>
</svg>
