<svg width="58" height="58" viewBox="0 0 58 58" fill="none" xmlns="http://www.w3.org/2000/svg">
<g id="Bg graphics 6">
<path id="Icon" d="M21.7023 17.0527C22.5271 16.5489 23.6041 16.8091 24.1079 17.6339L29.5813 26.5945L38.5419 21.1211C39.3667 20.6173 40.4437 20.8775 40.9476 21.7023C41.4514 22.5271 41.1912 23.6042 40.3664 24.108L31.4058 29.5814L36.8792 38.5419C37.383 39.3667 37.1228 40.4438 36.298 40.9476C35.4732 41.4514 34.3961 41.1912 33.8923 40.3664L28.4189 31.4058L19.4584 36.8792C18.6336 37.383 17.5565 37.1228 17.0527 36.298C16.5489 35.4732 16.8091 34.3962 17.6339 33.8924L26.5945 28.419L21.1211 19.4584C20.6172 18.6336 20.8775 17.5565 21.7023 17.0527Z" fill="#E7E7E7"/>
</g>
</svg>
