<svg width="32" height="32" viewBox="0 0 32 32" fill="none" xmlns="http://www.w3.org/2000/svg">
<g id="vuesax/linear/layer">
<g id="layer">
<path id="Vector" d="M17.3469 3.89326L25.2135 7.38659C27.4802 8.38659 27.4802 10.0399 25.2135 11.0399L17.3469 14.5333C16.4535 14.9333 14.9869 14.9333 14.0935 14.5333L6.22686 11.0399C3.96019 10.0399 3.96019 8.38659 6.22686 7.38659L14.0935 3.89326C14.9869 3.49326 16.4535 3.49326 17.3469 3.89326Z" stroke="#F04037" stroke-width="2" stroke-linecap="round" stroke-linejoin="round"/>
<path id="Vector_2" d="M4.00012 14.6667C4.00012 15.7867 4.84012 17.0801 5.86679 17.5334L14.9201 21.5601C15.6135 21.8667 16.4001 21.8667 17.0801 21.5601L26.1335 17.5334C27.1601 17.0801 28.0001 15.7867 28.0001 14.6667" stroke="#F04037" stroke-width="2" stroke-linecap="round" stroke-linejoin="round"/>
<path id="Vector_3" d="M4.00012 21.3333C4.00012 22.5733 4.73346 23.6933 5.86679 24.1999L14.9201 28.2266C15.6135 28.5333 16.4001 28.5333 17.0801 28.2266L26.1335 24.1999C27.2668 23.6933 28.0001 22.5733 28.0001 21.3333" stroke="#F04037" stroke-width="2" stroke-linecap="round" stroke-linejoin="round"/>
</g>
</g>
</svg>
