<svg width="32" height="32" viewBox="0 0 32 32" fill="none" xmlns="http://www.w3.org/2000/svg">
<g id="vuesax/linear/code">
<g id="code">
<path id="Vector" d="M12.0002 17.3333C11.1202 17.7733 10.3868 18.4266 9.84017 19.2399C9.5335 19.7066 9.5335 20.2933 9.84017 20.7599C10.3868 21.5733 11.1202 22.2266 12.0002 22.6666" stroke="#FEDC5A" stroke-width="2" stroke-linecap="round" stroke-linejoin="round"/>
<path id="Vector_2" d="M20.2801 17.3333C21.1601 17.7733 21.8934 18.4266 22.4401 19.2399C22.7468 19.7066 22.7468 20.2933 22.4401 20.7599C21.8934 21.5733 21.1601 22.2266 20.2801 22.6666" stroke="#FEDC5A" stroke-width="2" stroke-linecap="round" stroke-linejoin="round"/>
<path id="Vector_3" d="M12.0001 29.3334H20.0001C26.6668 29.3334 29.3335 26.6667 29.3335 20.0001V12.0001C29.3335 5.33341 26.6668 2.66675 20.0001 2.66675H12.0001C5.33348 2.66675 2.66681 5.33341 2.66681 12.0001V20.0001C2.66681 26.6667 5.33348 29.3334 12.0001 29.3334Z" stroke="#FEDC5A" stroke-width="2" stroke-linecap="round" stroke-linejoin="round"/>
<path id="Vector_4" d="M2.97345 10.6801L28.6001 10.6667" stroke="#FEDC5A" stroke-width="2" stroke-linecap="round" stroke-linejoin="round"/>
</g>
</g>
</svg>
